<svg version="1.1" id="Layer_1" xmlns="http://www.w3.org/2000/svg" xmlns:xlink="http://www.w3.org/1999/xlink" x="0px" y="0px"
	 width="100%" viewBox="0 0 1024 1024" enable-background="new 0 0 1024 1024" xml:space="preserve">
<path fill="#000000" opacity="1.000000" stroke="none" 
	d="
M299.340393,775.657776 
	C278.728851,754.591064 258.406189,733.730957 238.017212,712.935913 
	C215.627197,690.099915 193.147705,667.351624 170.771973,644.501648 
	C165.298187,638.911865 160.070587,633.080627 154.742493,627.348633 
	C151.995667,624.393616 150.931625,620.971802 151.016769,616.860107 
	C151.308990,602.745361 151.361069,588.625061 151.427155,574.506470 
	C151.505707,557.727417 151.565048,540.947754 151.518799,524.168701 
	C151.478500,509.542938 151.180725,494.917603 151.178818,480.292084 
	C151.176865,465.324768 151.593140,450.355743 151.462738,435.390625 
	C151.335388,420.775543 151.905548,406.154327 150.874268,391.541046 
	C150.075241,380.218658 156.913712,374.123230 168.340088,374.293274 
	C192.827866,374.657715 217.323227,374.590118 241.815155,374.539368 
	C247.395386,374.527802 249.066376,372.212158 249.160538,366.548859 
	C250.199051,304.090546 249.391235,241.628113 249.649414,179.168350 
	C249.686508,170.197845 254.323685,165.761353 264.024963,165.722641 
	C291.184204,165.614273 318.344299,165.760056 345.503845,165.701019 
	C373.660767,165.639816 401.817444,165.343414 429.974182,165.354370 
	C465.612915,165.368240 501.251984,165.746704 536.890198,165.661285 
	C558.707397,165.609009 580.546021,165.213623 602.342102,165.399139 
	C634.828857,165.675644 667.313965,165.565872 699.798340,165.643250 
	C727.955811,165.710312 756.117371,166.198853 784.274841,165.389740 
	C789.595520,165.236862 794.931458,165.453323 800.255859,165.631561 
	C807.634705,165.878601 813.332153,172.101181 813.332458,179.871140 
	C813.334717,240.365646 813.311829,300.860168 813.313599,361.354675 
	C813.318359,522.178101 813.331482,683.001587 813.341248,843.825012 
	C813.341370,845.491577 813.350769,847.158264 813.339600,848.824768 
	C813.270020,859.221191 807.979492,864.341370 797.567810,864.333801 
	C749.768616,864.299133 701.969482,864.309875 654.170288,864.305237 
	C621.705566,864.302124 589.240784,864.316772 556.776062,864.292725 
	C534.341187,864.276062 511.883881,864.808289 489.478485,863.972290 
	C471.390442,863.297485 453.319580,863.928162 435.251190,863.747925 
	C425.751923,863.653137 416.133545,863.012756 406.441956,864.179749 
	C400.644623,864.877930 393.787689,864.901672 387.765778,863.040833 
	C381.884735,861.223633 378.021729,856.155212 373.841858,851.972839 
	C361.729156,839.853027 349.997101,827.353760 338.038910,815.078186 
	C325.271606,801.971985 312.416687,788.951172 299.340393,775.657776 
M446.500092,194.332916 
	C432.410309,194.399216 418.320435,194.530823 404.230713,194.519302 
	C365.237427,194.487381 326.244232,194.364029 287.250977,194.355316 
	C279.723694,194.353638 276.838440,197.260513 276.261292,204.893921 
	C276.098450,207.047699 276.109650,209.216461 276.088104,211.378815 
	C275.894348,230.829147 275.454376,250.272827 275.824371,269.732819 
	C276.105469,284.516388 275.144745,299.325958 275.506134,314.105164 
	C276.096252,338.239166 275.390808,362.356232 275.367462,386.480560 
	C275.364990,389.059082 274.766632,391.296692 273.360107,393.525177 
	C269.770599,399.212280 264.267670,400.321381 258.224457,400.322144 
	C233.560684,400.325348 208.896896,400.294006 184.233124,400.305817 
	C177.744080,400.308929 176.181396,401.584717 176.408310,408.168732 
	C176.683563,416.154602 176.400604,424.118622 176.397018,432.092804 
	C176.383896,461.233856 176.701202,490.375031 176.693008,519.516113 
	C176.684204,550.826477 176.444885,582.136902 176.324814,613.447327 
	C176.318542,615.081299 175.908798,617.037415 177.535080,618.069092 
	C181.380875,620.509033 183.149155,624.767517 186.644836,627.737305 
	C192.658203,632.845947 198.168427,638.715332 203.794403,644.360535 
	C215.878326,656.485657 227.616669,668.971008 240.016785,680.761719 
	C263.016205,702.630737 284.915619,725.592712 307.498627,747.873108 
	C319.878632,760.087219 331.775543,772.789368 344.021912,785.140930 
	C356.643799,797.871338 369.575989,810.297058 382.069061,823.150879 
	C387.678192,828.921997 393.009857,834.353271 402.039276,833.106567 
	C403.927551,832.845764 405.985260,833.596191 407.933746,834.022888 
	C420.129883,836.693176 432.301056,835.385681 444.466156,833.817505 
	C446.506378,833.554504 448.443634,833.761963 450.361969,834.400513 
	C453.893463,835.575806 457.500793,835.787048 461.174652,835.332642 
	C472.011322,833.991943 482.843842,833.573364 493.734253,834.912842 
	C503.315643,836.091370 512.901306,835.246033 522.518250,834.869507 
	C536.085938,834.338196 549.696899,834.870361 563.288818,835.007446 
	C578.715820,835.163147 594.142822,835.570923 609.568665,835.519897 
	C622.681702,835.476562 635.807495,835.224182 648.911560,835.146484 
	C667.296387,835.037354 685.688171,836.463562 703.978394,833.412415 
	C705.247986,833.200684 706.790833,833.143066 707.893250,833.669678 
	C712.782593,836.005432 717.975647,835.164368 723.069824,835.594360 
	C732.537659,836.393677 741.828796,831.519226 751.362854,834.908203 
	C752.754822,835.403015 754.294617,834.628296 755.643372,833.885315 
	C756.993958,833.141235 758.605530,832.535583 759.960815,833.231201 
	C767.671570,837.189270 775.283020,833.395447 782.925537,833.095520 
	C786.361511,832.960693 787.545776,830.808716 788.062317,827.523315 
	C789.159790,820.542603 788.547363,813.548584 788.555969,806.587952 
	C788.673096,711.786926 788.650452,616.985596 788.579834,522.184387 
	C788.566162,503.867188 788.250732,485.539154 788.252808,467.232971 
	C788.255554,443.754364 788.628418,420.263641 788.614624,396.776947 
	C788.590942,356.326965 788.496094,315.877075 788.440002,275.427124 
	C788.429382,267.778473 788.403198,260.129150 788.483215,252.481216 
	C788.660583,235.520691 788.744446,218.559692 787.802917,201.618774 
	C787.547424,197.022934 784.520020,194.413376 779.963135,194.348526 
	C774.801636,194.275055 769.638184,194.339920 764.475586,194.339722 
	C658.817078,194.335892 553.158569,194.331360 446.500092,194.332916 
z"/>
</svg>