<?xml version="1.0" encoding="UTF-8"?>
<svg version="1.1" xmlns="http://www.w3.org/2000/svg" width="32" height="32">
<path d="M0 0 C4.8846525 2.26787438 7.73212562 5.1153475 10 10 C10.75381535 15.5997712 10.77303575 20.33499991 8.375 25.5 C3.80134327 30.3143755 0.6912538 32.25156236 -6 32.5 C-12.6912538 32.25156236 -15.80134327 30.3143755 -20.375 25.5 C-22.77303575 20.33499991 -22.75381535 15.5997712 -22 10 C-17.52212837 0.3553534 -9.85292056 -1.32635469 0 0 Z " fill="#C8252B" transform="translate(22,0)"/>
<path d="M0 0 C2.64 0 5.28 0 8 0 C8.33 1.32 8.66 2.64 9 4 C8.01 4 7.02 4 6 4 C6.33 7.3 6.66 10.6 7 14 C5.02 14 3.04 14 1 14 C1 10.7 1 7.4 1 4 C0.01 4 -0.98 4 -2 4 C-1.34 2.68 -0.68 1.36 0 0 Z " fill="#F6DDDE" transform="translate(7,5)"/>
<path d="M0 0 C2.31 0 4.62 0 7 0 C6.52511102 1.98019743 6.04497141 3.95913635 5.5625 5.9375 C5.29566406 7.03964844 5.02882813 8.14179688 4.75390625 9.27734375 C4 12 4 12 3 13 C-0.08638202 13.33366292 -1.61536475 13.22870204 -4.3125 11.625 C-4.869375 11.08875 -5.42625 10.5525 -6 10 C-6 9.34 -6 8.68 -6 8 C-4.35 7.34 -2.7 6.68 -1 6 C-1 7.32 -1 8.64 -1 10 C-0.34 9.67 0.32 9.34 1 9 C1.26932521 4.34947128 1.26932521 4.34947128 0 0 Z " fill="#FAEEEE" transform="translate(19,14)"/>
</svg>
